<svg id="Layer_1" data-name="Layer 1" xmlns="http://www.w3.org/2000/svg" xmlns:xlink="http://www.w3.org/1999/xlink" viewBox="0 0 1400 980"><defs><style>.cls-1{fill:#f9e3b2;}.cls-2{fill:#7ca588;}.cls-3{fill:#597d68;}.cls-4{fill:#c3d4ca;}.cls-5{fill:#fff;}.cls-6{fill:#335c64;}.cls-7{fill:#2a484c;}.cls-8{fill:#0a3542;}.cls-9{fill:#082b33;}.cls-10{fill:#dfb28b;}.cls-11{fill:#cf9e76;}.cls-12{fill:#4a0f00;}.cls-13{fill:#28100c;}.cls-14{fill:url(#linear-gradient);}.cls-15{fill:url(#linear-gradient-2);}.cls-16{fill:url(#linear-gradient-3);}.cls-17{fill:url(#linear-gradient-4);}.cls-18{fill:#231f20;}.cls-19{fill:#543e36;}.cls-20{fill:url(#linear-gradient-5);}.cls-21{fill:url(#linear-gradient-6);}.cls-22{fill:url(#linear-gradient-7);}.cls-23{fill:#dad7c5;}.cls-24{fill:#b08874;}.cls-25{fill:#f1f2f2;opacity:0.3;}.cls-26{fill:url(#linear-gradient-8);}.cls-27{fill:#b07e09;}.cls-28{fill:#642d10;}</style><linearGradient id="linear-gradient" x1="737.63" y1="275.38" x2="737.63" y2="243.21" gradientUnits="userSpaceOnUse"><stop offset="0" stop-color="#cf9e76" stop-opacity="0"/><stop offset="0.99" stop-color="#cf9e76"/></linearGradient><linearGradient id="linear-gradient-2" x1="664.36" y1="275.38" x2="664.36" y2="243.21" xlink:href="#linear-gradient"/><linearGradient id="linear-gradient-3" x1="726.01" y1="219.34" x2="711.28" y2="219.43" xlink:href="#linear-gradient"/><linearGradient id="linear-gradient-4" x1="-3027.97" y1="219.34" x2="-3042.7" y2="219.43" gradientTransform="matrix(-1, 0, 0, 1, -2350.93, 0)" xlink:href="#linear-gradient"/><linearGradient id="linear-gradient-5" x1="701.59" y1="252.53" x2="701.59" y2="260.78" xlink:href="#linear-gradient"/><linearGradient id="linear-gradient-6" x1="701.52" y1="214.75" x2="701.52" y2="267.72" gradientUnits="userSpaceOnUse"><stop offset="0" stop-color="#cf9e76" stop-opacity="0"/><stop offset="0.45" stop-color="#cf9e76"/><stop offset="1" stop-color="#b44921"/></linearGradient><linearGradient id="linear-gradient-7" x1="701.6" y1="292.13" x2="701.72" y2="281.41" xlink:href="#linear-gradient"/><linearGradient id="linear-gradient-8" x1="680.48" y1="261.44" x2="680.48" y2="249.35" xlink:href="#linear-gradient"/></defs><title>LECTERN2</title><rect class="cls-1" width="1400" height="980"/><rect class="cls-2" x="28.27" y="19.79" width="1343.46" height="940.42"/><path class="cls-3" d="M1163,19.79c27.32,58.14,42.09,120.11,42.09,184.45,0,333.13-395.57,603.19-883.53,603.19-102.81,0-201.52-12-293.29-34V960.21H1371.73V19.79Z"/><ellipse class="cls-4" cx="700" cy="490" rx="371.42" ry="375.17"/><ellipse class="cls-5" cx="700" cy="490" rx="249.65" ry="252.17"/><path class="cls-4" d="M700,909.51c-110.94,0-215.23-43.63-293.67-122.87S284.68,602.06,284.68,490s43.2-217.4,121.65-296.64S589.06,70.49,700,70.49s215.23,43.63,293.68,122.87S1115.32,377.94,1115.32,490s-43.2,217.4-121.64,296.64S810.94,909.51,700,909.51ZM700,78C475.1,78,292.12,262.82,292.12,490S475.1,902,700,902s407.88-184.82,407.88-412S924.9,78,700,78Z"/><path class="cls-4" d="M700,882.46c-103.78,0-201.35-40.83-274.73-115S311.47,594.83,311.47,490s40.41-203.38,113.8-277.51S596.22,97.54,700,97.54s201.35,40.83,274.73,115,113.8,172.68,113.8,277.51-40.41,203.38-113.8,277.51S803.78,882.46,700,882.46Zm0-781.91c-212.6,0-385.56,174.71-385.56,389.45S487.4,879.45,700,879.45,1085.56,704.74,1085.56,490,912.6,100.55,700,100.55Z"/><path class="cls-6" d="M610.58,375.13s-58.07,89-76.8,90.13c0,0-42.82,46.82,19.92,53.84,5.2.58,23.87-30,61.8-47.52Z"/><path class="cls-7" d="M570.87,503.57c10.13-10,24.73-22.78,44.63-32L613.88,440C598.68,451.3,578.79,471.59,570.87,503.57Z"/><path class="cls-6" d="M792.23,375.13s58.08,89,76.81,90.13c0,0,42.82,46.82-19.92,53.84-5.2.58-23.88-30-61.8-47.52Z"/><path class="cls-7" d="M791,399l-3.7,72.63c18.45,8.54,32.33,20.15,42.33,29.76Z"/><polygon class="cls-8" points="785.91 612.67 776.09 631.4 625.8 631.4 617.13 612.67 606.78 371.85 701.52 328.47 796.26 371.85 785.91 612.67"/><path class="cls-9" d="M640.27,527C752.65,501.2,772.05,417.53,772.05,417.53Z"/><polygon class="cls-9" points="669.22 382.23 624.78 412.91 658.41 334 744.19 334 777.82 412.91 733.38 382.23 701.52 401.27 669.22 382.23"/><polygon class="cls-6" points="669.22 374.16 624.78 404.84 658.41 325.92 744.19 325.92 777.82 404.84 733.38 374.16 701.52 401.27 669.22 374.16"/><ellipse class="cls-7" cx="701.84" cy="346.55" rx="37.48" ry="21.87"/><polygon class="cls-10" points="733.05 358.44 701.52 393.53 670 358.44 670 286.27 733.05 286.27 733.05 358.44"/><path class="cls-11" d="M733.05,320.49s-19.73,35.09-31.53,35.09S670,320.49,670,320.49V248.32h63Z"/><path class="cls-11" d="M663.35,254.85a3.22,3.22,0,0,1-3,3.16l-9,.55a3.91,3.91,0,0,1-3.81-2.68l-7.13-24.49a4.34,4.34,0,0,1,1.63-4.52l5.57-3.76a5.45,5.45,0,0,1,5.1-.27l8,4.29a5.49,5.49,0,0,1,2.63,4.38Z"/><path class="cls-11" d="M741.11,254.85a3.22,3.22,0,0,0,3,3.16l9,.55a3.91,3.91,0,0,0,3.81-2.68l7.13-24.49a4.34,4.34,0,0,0-1.63-4.52l-5.57-3.76a5.45,5.45,0,0,0-5.1-.27l-8,4.29a5.46,5.46,0,0,0-2.63,4.38Z"/><path class="cls-12" d="M766.14,191.88c1.93-6.74-12.29-11.56-12.29-11.56,10.84-8,5.06-25.79,5.06-25.79-16.15,13-49.64-19.76-75.18-27.23-22.45-6.56-31,35.84-32.75,46.19-.7-.2-1.5-.41-2.38-.61a32.65,32.65,0,0,0-6.16-.86,16.78,16.78,0,0,0-3.63.24,9.52,9.52,0,0,0-3.68,1.41,6.88,6.88,0,0,0-2.54,3.1,9.39,9.39,0,0,0-.65,3.57,16.12,16.12,0,0,0,.33,3.2,24.31,24.31,0,0,0,.69,2.74c.13.42.26.82.39,1.19s.25.72.38,1.05c.24.66.48,1.22.67,1.69l.63,1.44-.43-1.51c-.13-.49-.29-1.07-.44-1.75-.08-.34-.16-.7-.23-1.08s-.16-.78-.22-1.2a24,24,0,0,1-.32-2.71,15.55,15.55,0,0,1,.09-3,7.61,7.61,0,0,1,.9-2.81,4.6,4.6,0,0,1,2-1.87,7.17,7.17,0,0,1,2.79-.63,14.8,14.8,0,0,1,3,.21,24.37,24.37,0,0,1,3.44.85c-20.58,3.68.64,28.67,5.06,38.34,4.73,10.37-3.77,21.93-3.77,21.93l6.75,7.23h-4.1l8.19,9.4,87-.3,8.17-12.34L747.1,243l7.84-9.29s-6.63-10.23-6.15-17.46S764.21,198.63,766.14,191.88Z"/><path class="cls-13" d="M637,182.63c-2.2,9.07,10.36,24.72,13.64,31.9,4.73,10.37-3.77,21.93-3.77,21.93l6.75,7.23h-4.1l8.19,9.4,87-.3,8.17-12.34L747.1,243l7.84-9.29s-6.63-10.23-6.15-17.46,15.42-17.59,17.35-24.34a4.53,4.53,0,0,0,.07-2.25C719.11,240,656.21,197.72,637,182.63Z"/><path class="cls-10" d="M746.41,185.15a10.66,10.66,0,0,0-4.38-8L724.6,165.91a20.94,20.94,0,0,0-9.6-2.82H688a20.94,20.94,0,0,0-9.59,2.82L661,177.12a10.66,10.66,0,0,0-4.38,8v92.22a13,13,0,0,0,3.94,8.62l18.31,23.08a16.26,16.26,0,0,0,9.15,3.42h27a16.2,16.2,0,0,0,9.15-3.42L742.47,286a13,13,0,0,0,3.94-8.62Z"/><path class="cls-14" d="M731.45,248.63c-5.83,11.41,0,51.25,0,51.25l11-13.89a13,13,0,0,0,3.94-8.62V237.79S733.55,244.52,731.45,248.63Z"/><path class="cls-15" d="M668.18,247c-2.1-4.11-11.54-9.2-11.54-9.2v39.58a13,13,0,0,0,3.94,8.62l11,13.89S674,258.41,668.18,247Z"/><polygon class="cls-16" points="712.28 210.59 712.36 228.26 716.24 222.33 731.96 223.42 734.86 227.85 726.81 211.04 712.28 210.59"/><polygon class="cls-17" points="690.77 210.59 690.69 228.26 686.81 222.33 671.08 223.42 668.18 227.85 676.23 211.04 690.77 210.59"/><polygon class="cls-18" points="712.14 228.7 715.61 221.73 732.33 222.8 734.64 228.45 731.64 224.11 716.38 223.27 712.14 228.7"/><path d="M727.24,223.87a4.37,4.37,0,0,0-.29-1.41l-8.39-.54a4.45,4.45,0,0,0-.48,1.44,4.4,4.4,0,0,0-.06.73,4.62,4.62,0,0,0,9.23,0C727.25,224,727.24,223.94,727.24,223.87Z"/><polygon class="cls-18" points="690.91 228.7 687.44 221.73 670.72 222.8 668.4 228.45 671.41 224.11 686.66 223.27 690.91 228.7"/><path d="M675.81,223.87a4.37,4.37,0,0,1,.29-1.41l8.39-.54a4.45,4.45,0,0,1,.48,1.44,4.4,4.4,0,0,1,.06.73,4.62,4.62,0,0,1-9.23,0A1.55,1.55,0,0,1,675.81,223.87Z"/><path class="cls-19" d="M714.49,221.2a7.06,7.06,0,0,1,.69-.41,7.74,7.74,0,0,1,.85-.4l.53-.22.6-.2a13.9,13.9,0,0,1,1.39-.37,14.71,14.71,0,0,1,1.59-.25l.85-.08.87,0c.59,0,1.18.05,1.78.08s1.18.19,1.75.28,1.13.29,1.67.43,1,.39,1.5.57a9.1,9.1,0,0,1,1.29.62,6.77,6.77,0,0,1,1,.59l.77.52.66.46-.75-.29-.85-.35c-.32-.15-.7-.26-1.11-.41l-.63-.22a6.76,6.76,0,0,0-.68-.22l-1.49-.42-1.61-.33c-.55-.07-1.11-.19-1.68-.23s-1.12-.12-1.68-.11l-.83,0-.81,0c-.54,0-1.05.08-1.54.11s-.95.1-1.37.19A18.31,18.31,0,0,0,714.49,221.2Z"/><path class="cls-19" d="M688.72,221.2a7.06,7.06,0,0,0-.69-.41,7.74,7.74,0,0,0-.85-.4l-.53-.22-.6-.2c-.43-.15-.9-.25-1.39-.37a14.71,14.71,0,0,0-1.59-.25l-.85-.08-.87,0c-.59,0-1.18.05-1.78.08s-1.18.19-1.76.28-1.12.29-1.66.43-1,.39-1.5.57a9.1,9.1,0,0,0-1.29.62,7.42,7.42,0,0,0-1.06.59l-.77.52-.65.46.75-.29.85-.35c.31-.15.7-.26,1.11-.41l.63-.22a6.76,6.76,0,0,1,.68-.22l1.49-.42,1.61-.33c.55-.07,1.11-.19,1.67-.23s1.13-.12,1.69-.11l.83,0,.81,0c.54,0,1,.08,1.54.11s1,.1,1.37.19A18.31,18.31,0,0,1,688.72,221.2Z"/><polygon class="cls-20" points="703.91 244.56 699.85 244.56 697.62 261.85 701.52 264.17 705.57 261.97 703.91 244.56"/><path class="cls-21" d="M712.91,247.38l-2.49-12.19s-3.64-4.79-3.89-6.73c-.4-3.09,3.23-16.18,3.23-16.18H693.29s3.62,13.09,3.22,16.18c-.25,1.94-3.88,6.73-3.88,6.73l-2.49,12.19c-2.14.73-3.62,2.3-3.62,4.12,0,2.51,2.83,4.55,6.31,4.55a8.61,8.61,0,0,0,2.06-.25c1.17,1.63,3.7,2.77,6.63,2.77s5.47-1.14,6.63-2.77a8.69,8.69,0,0,0,2.07.25c3.48,0,6.3-2,6.3-4.55C716.52,249.68,715,248.11,712.91,247.38Z"/><ellipse class="cls-18" cx="711.17" cy="254.84" rx="3.06" ry="1.1" transform="translate(-27.1 94.64) rotate(-7.47)"/><ellipse class="cls-18" cx="691.94" cy="254.84" rx="1.1" ry="3.06" transform="translate(349.28 907.77) rotate(-82.53)"/><path class="cls-22" d="M680.92,298.75h41.21C698.1,262.53,680.92,298.75,680.92,298.75Z"/><path class="cls-18" d="M676.24,259.57s27.06,13,50.35,0C726.59,259.53,702.74,300.3,676.24,259.57Z"/><path class="cls-23" d="M680.92,264.41s22.13,16.39,40.54,0l-.61-2.21c-15.23,5.84-31,2.23-39.07-.48Z"/><path class="cls-24" d="M676.2,259.53s24.28,42.64,50.56,0C726.76,259.53,705.3,292.77,676.2,259.53Z"/><path class="cls-24" d="M707.09,262.37s-4.3,2.89-5.66,2.85-5-3.1-5-3.1-16.71-.51-20.79-2.86c0,0,28.88,16.27,51.47,0C727.14,259.26,720.56,262.91,707.09,262.37Z"/><path class="cls-11" d="M735.17,195.6l-4.24-3-6.27-26L687.74,169l-19.08-.76a56.22,56.22,0,0,0-1.21,7.06s0,9.45,7.18,10.51c14.28,2.11,26.11-19.41,36.3-11.33a14.16,14.16,0,0,1,1.28,2.33,38,38,0,0,1,2.18,7.73c.29,1.48.54,3,.83,4.65l.06.35.07.3.14.59c.08.39.19.81.29,1.21s.21.81.32,1.22.23.8.36,1.2a29.32,29.32,0,0,0,1.84,4.66c.2.37.41.73.61,1.09s.42.67.63,1,.45.66.67,1,.46.63.7.94a20.47,20.47,0,0,0,3.06,3.16,16.15,16.15,0,0,0,3.26,2.1c.53.28,1.06.47,1.56.68s1,.35,1.45.45a13.22,13.22,0,0,0,1.29.31c.4.08.77.15,1.11.19l.89.12.67,0,.55,0-.55-.08-.65-.11c-.26,0-.55-.11-.88-.18s-.7-.17-1.09-.28-.8-.24-1.25-.4-.9-.36-1.38-.56-1-.46-1.47-.77a15.61,15.61,0,0,1-3-2.25,19.18,19.18,0,0,1-2.7-3.22c-.2-.31-.42-.61-.6-.93s-.39-.62-.57-1-.38-.7-.54-1l-.49-1a28.76,28.76,0,0,1-1.42-4.5c-.09-.39-.18-.78-.26-1.17s-.16-.78-.22-1.18-.15-.77-.2-1.18l-.1-.6,0-.3,0-.25c-.18-1.59-.32-3.19-.51-4.74-.05-.4-.1-.81-.16-1.21.2.47.41.94.61,1.44,11.57,28.28,22.17,19.79,25.54,17.74C742.82,202.06,737.15,204.07,735.17,195.6Z"/><path class="cls-24" d="M670,199.14s.92-.34,2.56-.83,4-1.14,6.87-1.74c1.44-.3,3-.61,4.66-.88.83-.14,1.68-.26,2.56-.39s1.77-.24,2.68-.33l1.38-.15,1.4-.12c.94-.09,1.89-.15,2.86-.21s1.93-.09,2.9-.14,2,0,2.94,0c1.95,0,3.91,0,5.84.15l1.43.08,1.42.11,1.41.12,1.38.15c.91.1,1.81.19,2.68.33s1.73.24,2.56.4,1.63.27,2.41.43l2.24.46c.72.15,1.4.33,2,.48s1.27.3,1.84.47c1.15.33,2.15.58,3,.85l2.56.81-2.58-.76c-.81-.25-1.83-.49-3-.79-.57-.16-1.19-.28-1.84-.43s-1.34-.32-2.06-.46l-2.24-.44c-.78-.14-1.58-.26-2.41-.4s-1.68-.24-2.56-.36c-.43-.06-.87-.13-1.32-.17l-1.35-.15-1.38-.14-1.4-.11-1.42-.11-1.43-.08c-1.92-.1-3.87-.13-5.82-.13-1,0-2,0-2.93,0s-1.94.07-2.9.13-1.91.11-2.85.2l-1.4.12-1.37.14c-.91.09-1.8.22-2.68.32s-1.73.23-2.56.36c-1.66.25-3.22.54-4.66.82s-2.75.57-3.9.85-2.17.54-3,.77C671,198.82,670,199.14,670,199.14Z"/><path class="cls-24" d="M670,202.75s.92-.34,2.56-.83,4-1.13,6.87-1.74c1.44-.3,3-.6,4.66-.87.83-.14,1.68-.26,2.56-.39s1.77-.24,2.68-.33l1.38-.15,1.4-.13c.94-.09,1.89-.14,2.86-.21s1.93-.09,2.9-.14,2-.05,2.94-.05c1.95,0,3.91,0,5.84.15l1.43.09c.48,0,1,.07,1.42.11l1.41.12,1.38.14c.91.1,1.81.2,2.68.34s1.73.23,2.56.39,1.63.28,2.41.43l2.24.46c.72.15,1.4.33,2,.48s1.27.3,1.84.47c1.15.33,2.15.59,3,.85l2.56.81-2.58-.76c-.81-.24-1.83-.48-3-.79-.57-.16-1.19-.28-1.84-.43s-1.34-.32-2.06-.45l-2.24-.44c-.78-.15-1.58-.26-2.41-.4s-1.68-.25-2.56-.37l-1.32-.17-1.35-.14c-.46-.05-.92-.11-1.38-.15l-1.4-.11-1.42-.11-1.43-.07c-1.92-.11-3.87-.14-5.82-.13-1,0-2,0-2.93,0s-1.94.07-2.9.12-1.91.12-2.85.2l-1.4.12-1.37.15c-.91.08-1.8.21-2.68.31s-1.73.23-2.56.36c-1.66.25-3.22.54-4.66.82s-2.75.57-3.9.85-2.17.54-3,.77C671,202.43,670,202.75,670,202.75Z"/><path class="cls-12" d="M742.82,197.49s-5.78,1.92-7.71-6.27,5.3-25.06-1.2-32.29-61.11-32.83-66.46,13.46c0,0,0,8.86,7.18,9.85,14.28,2,26.11-18.18,36.3-10.61a12.8,12.8,0,0,1,1.28,2.19,33.62,33.62,0,0,1,2.18,7.23c.29,1.4.54,2.86.83,4.37l.06.32.07.28.14.56c.08.36.19.75.29,1.13s.21.76.32,1.14.23.76.36,1.13a26.6,26.6,0,0,0,1.84,4.37l.61,1c.21.34.42.63.63.94s.45.62.67.92.46.6.7.88a19.85,19.85,0,0,0,3.06,3,15.67,15.67,0,0,0,3.26,2c.53.27,1.06.44,1.56.64s1,.33,1.45.43.89.22,1.29.28a10.59,10.59,0,0,0,1.11.18c.34.05.63.09.89.11l.67,0,.55,0-.55-.08-.65-.09-.88-.18c-.34-.06-.7-.15-1.09-.26s-.8-.23-1.25-.37-.9-.34-1.38-.52-1-.44-1.47-.73a15.94,15.94,0,0,1-3-2.11,18.38,18.38,0,0,1-2.7-3c-.2-.29-.42-.57-.6-.87s-.39-.59-.57-.92-.38-.65-.54-1l-.49-1a25.52,25.52,0,0,1-1.42-4.22c-.09-.36-.18-.73-.26-1.09s-.16-.74-.22-1.11-.15-.72-.2-1.1l-.1-.57,0-.28,0-.24c-.18-1.48-.32-3-.51-4.43-.05-.38-.1-.76-.16-1.14.2.44.41.88.61,1.35C728.85,207.36,739.45,199.41,742.82,197.49Z"/><path class="cls-12" d="M693.6,207.1l-2.83,6.33s-16.84-6.34-24.78,5.3C666,218.73,668.77,201.58,693.6,207.1Z"/><path class="cls-12" d="M709.22,207.4l2.95,6.27s16.71-6.69,24.89,4.78C737.06,218.45,733.92,201.37,709.22,207.4Z"/><path class="cls-25" d="M709.84,249.35c0,1.3-3.72,2.35-8.32,2.35s-8.31-1-8.31-2.35,3.72-2.36,8.31-2.36S709.84,248.05,709.84,249.35Z"/><ellipse class="cls-11" cx="701.52" cy="300.1" rx="1.18" ry="10.65"/><path class="cls-26" d="M674.65,261.44l11.87-12.09S672.54,252.7,674.65,261.44Z"/><path class="cls-10" d="M539.8,466.71S568.36,492.93,551,507l-34.65,27.15s-37.92-132-58.52-152.63,16.86-35.58,16.86-35.58S500.94,461.09,539.8,466.71Z"/><path class="cls-10" d="M477.53,364.8s5.78-14.51,9.37-19.35c0,0-9.83-34.49-6.87-40.42l-1.25-15-8,.78L467.23,305s6.56,9.36,2.5,17.64-35.25-7-41-25.88L408.4,279.44s-5.62-3-8,1.56l16.7,18.26s9.36,11.7,10.14,14.67-17.23-8.43-23.78-17.56L385.61,284.2s-8.66-4.92-10.3.93l22.63,20.06s19.45,13,21.55,18.39-3.68,26.63-3.68,26.63l26.92,31.14L472,379.71Z"/><path class="cls-10" d="M428.06,332.29c-4.29,0-17.23-8.43-23.78-17.56l-17.89-12.17s-8.66-4.92-10.3.93l22.63,20.06s19.45,13,21.55,18.39S431.13,332.31,428.06,332.29Z"/><path class="cls-10" d="M432.74,348.52c-4.29,0-17.22-8.43-23.78-17.56l-17.88-12.17s-8.67-4.92-10.3.93l22.62,20.06s15.67,14.2,19.46,18.58C427.88,364.16,435.81,348.54,432.74,348.52Z"/><path class="cls-9" d="M702.88,484.59c-3-3.79-8.71-11.16-10.52-15.11,0,0-35-8-38.75-13.41L639.87,450l-3.14,7.36,10.73,10s11.36-1.24,16.66,6.29-23.07,27.55-42.4,23.54l-9.4,3.56.39,9.13,5.6-1.37s14.77-2.58,17.74-1.84c2.66.66-11.88,8.93-23,11.68l.62,14.42,14.23-1.46s19.47-4.71,26.65-3.75a51.66,51.66,0,0,1-12.4,3.37l-19.27,9.83s-8.47,5.23-4.13,9.48L647.24,540s20-6.91,25.65-8.13l29.71-6.38,6.15-12.88c.42-.11.83-.19,1.26-.32,11.67-3.4,45,.57,80,6.35l.9-21C760.81,497.69,723.65,489.72,702.88,484.59Z"/><path class="cls-10" d="M833.67,479.93s45.63-7.16,49.61,14.78l7.41,38.78S738,499.26,710,507.42s-23.1-31.88-23.1-31.88S810.07,511.31,833.67,479.93Z"/><path class="cls-10" d="M704.82,482.15s-10-12-12.46-17.51c0,0-35-8-38.75-13.41l-13.74-6.11-3.14,7.35,10.73,10s11.36-1.25,16.66,6.29-23.07,27.55-42.4,23.53l-25,9.47s-5.3,3.5-2.46,7.72l24-5.86s14.77-2.58,17.74-1.84-15.67,11-26.82,12.41L590,524s-8.47,5.24-4.13,9.49l28.47-10.21s20.74-10.8,26.49-10,21.58,16,21.58,16l40.24-8.64,12.63-26.45Z"/><path class="cls-10" d="M654.22,510.72c-2.92,3.14-17.86,7-29,5.62l-21.07,4.92s-9.48,3-6.28,8.22l30.08-3.08s22.73-5.51,28.13-3.41S656.32,508.48,654.22,510.72Z"/><path class="cls-10" d="M669,513.6c-2.09,3.74-15.67,11-26.83,12.41l-19.27,9.83s-8.47,5.23-4.13,9.48l28.46-10.2s20-6.91,25.65-8.12C680.39,525.39,670.5,510.92,669,513.6Z"/><path class="cls-11" d="M459.43,352.11l7.18-24.65S454,337.76,459.43,352.11Z"/><path class="cls-11" d="M641.12,501s8.82,5.65,17.33-1.62Z"/><path class="cls-11" d="M650.81,513.27S661,522.09,674,511.86Z"/><path class="cls-23" d="M643,447c-4,.35-3.58,5.3-3.58,5.3l3.73,3.6,4.14-6.76Z"/><path class="cls-23" d="M600.18,503.62l-4.95,1.88c-1,2.46.81,3.2.81,3.2l5.25-1.21Z"/><path class="cls-23" d="M592.51,525.65l-6.19,3.45c-1.88,2.49,1,3.45,1,3.45l6.46-2.26Z"/><polygon class="cls-18" points="761.83 405.42 767.51 401.31 754.43 383.25 742.5 391.9 755.58 409.95 760.2 406.6 805.5 485.77 805.5 566.48 807.5 566.48 807.5 485.23 761.83 405.42"/><polygon class="cls-18" points="638.17 405.42 632.49 401.31 645.57 383.25 657.5 391.9 644.42 409.95 639.8 406.6 594.5 485.77 594.5 566.48 592.5 566.48 592.5 485.23 638.17 405.42"/><rect class="cls-27" x="458.9" y="586.28" width="482.19" height="373.98"/><polygon class="cls-28" points="384.79 575.76 384.79 601.37 429.88 601.37 429.88 960.26 504.71 960.26 504.71 601.37 910.98 601.37 910.98 960.26 985.81 960.26 985.81 601.37 1015.21 601.37 1015.21 575.76 384.79 575.76"/><rect class="cls-28" x="315.51" y="552.31" width="768.97" height="28.34"/><rect class="cls-28" x="616.42" y="621.63" width="167.17" height="338.63"/></svg>